<?xml version="1.0" encoding="UTF-8"?>
<svg width="70px" height="70px" viewBox="0 0 70 70" version="1.1" xmlns="http://www.w3.org/2000/svg" xmlns:xlink="http://www.w3.org/1999/xlink">
    <title>1、图标/70px/学习/设计趋势-dark</title>
    <g id="1、图标/70px/学习/设计趋势-dark" stroke="none" stroke-width="1" fill="none" fill-rule="evenodd">
        <g id="Group-17" transform="translate(19.000000, 14.000000)">
            <path d="M16,42 C24.836556,42 32,35.112795 32,26.6169971 C32,18.1211993 25.7831591,7.96149379 15.6852933,0 C17.8454135,10.4207625 15.7410475,18.0432181 9.37219534,22.8673668 C7.44442528,21.094064 7.27522487,17.7531545 8.86459412,12.8446383 C3.60942898,15.3662608 0,20.5863699 0,26.6169971 C0,35.112795 7.163444,42 16,42 Z" id="Oval" stroke="#FFFFFF" stroke-width="3.4" stroke-linecap="round" stroke-linejoin="round"></path>
            <path d="M17.718783,40.2302246 C21.9205044,39.7588704 24.1530866,37.6113552 24.4165298,33.7876789 C23.9422779,29.0963481 22.4703076,25.1685735 20.0006188,22.0043551 C19.5029297,29.6430664 13.9924316,30.6806641 11.8968325,33.3469057 C9.80123331,36.0131473 11.416201,40.9372559 17.718783,40.2302246 Z" id="Oval" fill="#3399FF"></path>
        </g>
    </g>
</svg>