<svg width="70" height="70" viewBox="0 0 70 70" xmlns="http://www.w3.org/2000/svg"><g fill="none" fill-rule="evenodd"><path d="M35 56c8.837 0 16-6.887 16-15.383C51 32.121 44.783 21.961 34.685 14c2.16 10.42.056 18.043-6.313 22.867-1.928-1.773-2.097-5.114-.507-10.022C22.609 29.366 19 34.586 19 40.617 19 49.113 26.163 56 35 56z" stroke="#292934" stroke-width="3.4" stroke-linecap="round" stroke-linejoin="round"/><path d="M36.719 54.23c4.202-.471 6.434-2.619 6.698-6.442-.475-4.692-1.947-8.62-4.416-11.784-.498 7.64-6.009 8.677-8.104 11.343-2.096 2.666-.48 7.59 5.822 6.883z" fill="#39F"/></g></svg>