<svg xmlns="http://www.w3.org/2000/svg" xmlns:xlink="http://www.w3.org/1999/xlink" width="70" height="70" viewBox="0 0 70 70" fill="none"><g opacity="1" transform="translate(0 0)  rotate(0 35 35)"><g opacity="1" transform="translate(14 13)  rotate(0 21 22.5)"><g opacity="1" transform="translate(0 0)  rotate(0 21 22.5)"><path  id="Rectangle" style="stroke:#292934; stroke-width:3.4; stroke-opacity:1; stroke-dasharray:0 0" transform="translate(0 0)  rotate(0 21 22.5)" d="M2.449293598294707e-16,41C0,42.060865959358175 0.42142736146167126,43.07828161095405 1.1715728752538102,43.82842712474619C1.921718389045949,44.57857263853833 2.9391340406418243,45 4,45L30,45C36.62741699796952,45 42,39.62741699796952 42,33L42,4.000000000000001C42,2.939134040641823 41.578572638538326,1.9217183890459468 40.82842712474619,1.1715728752538084C40.07828161095405,0.4214273614616699 39.060865959358175,-8.881784197001252e-16 38,-8.881784197001252e-16L4.000000000000001,0C2.9391340406418247,-8.881784197001252e-16 1.9217183890459482,0.4214273614616708 1.1715728752538093,1.1715728752538097C0.42142736146167037,1.9217183890459486 -8.881784197001252e-16,2.939134040641825 -8.881784197001252e-16,4.000000000000001Z " /><path  id="Line" style="stroke:#292934; stroke-width:3.4; stroke-opacity:1; stroke-dasharray:0 0" transform="translate(8.3125 10.375)  rotate(0 4.375000000000005 0.4375)" d="M0,0.44L8.75,0.44 " /><path  id="Line" style="stroke:#292934; stroke-width:3.4; stroke-opacity:1; stroke-dasharray:0 0" transform="translate(8.3125 21.75)  rotate(0 4.375000000000005 0.4375)" d="M0,0.44L8.75,0.44 " /><path  id="Line" style="stroke:#292934; stroke-width:3.4; stroke-opacity:1; stroke-dasharray:0 0" transform="translate(8.3125 34)  rotate(0 12.687499999999995 0.4375)" d="M0,0.44L25.37,0.44 " /><path id="Rectangle" style="fill:#3399FF" transform="translate(24.5 10.375)  rotate(0 5.25 5.90625)" opacity="1" d="M1.2246467991473535e-16,9.8125C0,10.342932979679087 0.21071368073083563,10.851640805477025 0.5857864376269051,11.226713562373096C0.9608591945229745,11.601786319269165 1.4695670203209121,11.8125 2,11.8125L8.5,11.8125C9.604569499661586,11.8125 10.5,10.917069499661586 10.5,9.8125L10.5,2.0000000000000004C10.5,1.4695670203209115 10.289286319269165,0.9608591945229734 9.914213562373094,0.5857864376269042C9.539140805477025,0.21071368073083496 9.030432979679087,-4.440892098500626e-16 8.5,-4.440892098500626e-16L2.0000000000000004,0C1.4695670203209124,-4.440892098500626e-16 0.9608591945229741,0.2107136807308354 0.5857864376269046,0.5857864376269049C0.21071368073083518,0.9608591945229743 -4.440892098500626e-16,1.4695670203209126 -4.440892098500626e-16,2.0000000000000004Z " /><path  id="Rectangle" style="stroke:#3399FF; stroke-width:2.4; stroke-opacity:1; stroke-dasharray:0 0" transform="translate(24.5 10.375)  rotate(0 5.25 5.90625)" d="M1.2246467991473535e-16,9.8125C0,10.342932979679087 0.21071368073083563,10.851640805477025 0.5857864376269051,11.226713562373096C0.9608591945229745,11.601786319269165 1.4695670203209121,11.8125 2,11.8125L8.5,11.8125C9.604569499661586,11.8125 10.5,10.917069499661586 10.5,9.8125L10.5,2.0000000000000004C10.5,1.4695670203209115 10.289286319269165,0.9608591945229734 9.914213562373094,0.5857864376269042C9.539140805477025,0.21071368073083496 9.030432979679087,-4.440892098500626e-16 8.5,-4.440892098500626e-16L2.0000000000000004,0C1.4695670203209124,-4.440892098500626e-16 0.9608591945229741,0.2107136807308354 0.5857864376269046,0.5857864376269049C0.21071368073083518,0.9608591945229743 -4.440892098500626e-16,1.4695670203209126 -4.440892098500626e-16,2.0000000000000004Z " /></g></g></g></svg>