<svg xmlns="http://www.w3.org/2000/svg" xmlns:xlink="http://www.w3.org/1999/xlink" width="70" height="70" viewBox="0 0 70 70" fill="none"><g opacity="1" transform="translate(0 0)  rotate(0 35 35)"><g opacity="1" transform="translate(16 13)  rotate(0 20 21.5)"><g opacity="1" transform="translate(0 0)  rotate(0 20 21.5)"><g opacity="1" transform="translate(0 0)  rotate(0 20 21.5)"><path  id="Path 6" style="stroke:#292934; stroke-width:3.4; stroke-opacity:1; stroke-dasharray:0 0" transform="translate(0 4.360000000000014)  rotate(0 17.64 19.32)" d="M0,38.64L18,0L35.28,38.64 " /><path  id="Path 7" style="stroke:#292934; stroke-width:3.4; stroke-opacity:1; stroke-dasharray:0 0" transform="translate(17.63999999999987 0)  rotate(0 0.41999999999999993 4.2)" d="M0.42,0L0.42,8.4 " /><path id="Oval" style="fill:#3399FF" transform="translate(10.92000000000007 4.360000000000014)  rotate(0 7.14 7.14)" opacity="1" d="M14.28,7.14C14.28,3.2 11.08,0 7.14,0C3.2,0 0,3.2 0,7.14C0,11.08 3.2,14.28 7.14,14.28C11.08,14.28 14.28,11.08 14.28,7.14Z " /><path  id="Oval" style="stroke:#3399FF; stroke-width:3.4; stroke-opacity:1; stroke-dasharray:0 0" transform="translate(10.92000000000007 4.360000000000014)  rotate(0 7.14 7.14)" d="M14.28,7.14C14.28,3.2 11.08,0 7.14,0C3.2,0 0,3.2 0,7.14C0,11.08 3.2,14.28 7.14,14.28C11.08,14.28 14.28,11.08 14.28,7.14Z " /><path  id="Path" style="stroke:#292934; stroke-width:3.4; stroke-opacity:1; stroke-dasharray:0 0" transform="translate(7 16)  rotate(0 16.5 9.5)" d="M0,13.25C3.49,16.8 8.38,19 13.77,19C24.39,19 33,10.49 33,0 " /></g></g></g></g></svg>