<?xml version="1.0" encoding="UTF-8"?>
<svg width="70px" height="70px" viewBox="0 0 70 70" version="1.1" xmlns="http://www.w3.org/2000/svg" xmlns:xlink="http://www.w3.org/1999/xlink">
    <title>1、图标/70px/学习/经验观点-dark</title>
    <g id="1、图标/70px/学习/经验观点-dark" stroke="none" stroke-width="1" fill="none" fill-rule="evenodd" stroke-linejoin="round">
        <polygon id="Path-5" stroke="#3399FF" stroke-width="3.4" fill="#3399FF" stroke-linecap="round" points="24.3626374 23.7301587 33.3085632 23.7301587 45.3626374 23.7301587 40.9362646 15 28.2098966 15"></polygon>
        <g id="70px/经验观点" transform="translate(10.000000, 15.000000)" stroke="#FFFFFF" stroke-width="3.4">
            <g id="Group-11">
                <path d="M9.01330286,0 L40.2871702,0 C40.8403145,1.67474588e-15 41.3687579,0.229085959 41.7468866,0.632802866 L48.1653127,7.48556873 C48.8135499,8.17767274 48.8866558,9.22985858 48.3403597,10.0049587 L27.0463349,40.2175184 C26.0918271,41.5718009 24.2201828,41.8958822 22.8659004,40.9413744 C22.5833535,40.7422334 22.337349,40.4957586 22.138748,40.2128319 L0.935089901,10.0061335 C0.390470063,9.23026892 0.465316271,8.17865125 1.1143301,7.48774051 L7.55558194,0.630675449 C7.9336047,0.228249529 8.46117259,9.89603104e-16 9.01330286,0 Z" id="Path-2"></path>
                <line x1="37.3827332" y1="8.67400588" x2="24.4897959" y2="41.228282" id="Path-3"></line>
                <line x1="24.0571558" y1="8.67400588" x2="12.3626374" y2="39.695358" id="路径" transform="translate(18.209897, 24.184682) scale(-1, 1) translate(-18.209897, -24.184682) "></line>
                <line x1="2.04081633" y1="8.9047619" x2="46.9387755" y2="8.9047619" id="Path-5" stroke-linecap="round"></line>
            </g>
        </g>
    </g>
</svg>