<svg xmlns="http://www.w3.org/2000/svg" xmlns:xlink="http://www.w3.org/1999/xlink" width="70" height="70" viewBox="0 0 70 70" fill="none"><g opacity="1" transform="translate(0 0)  rotate(0 35 35)"><path id="Path 5" style="fill:#3399FF" transform="translate(24.36263736263749 15.00000000000018)  rotate(0 10.5 4.3650793650793265)" opacity="1" d="M21,8.73L16.57,0L3.85,0L0,8.73L21,8.73Z " /><path  id="Path 5" style="stroke:#3399FF; stroke-width:3.4; stroke-opacity:1; stroke-dasharray:0 0" transform="translate(24.36263736263749 15.00000000000018)  rotate(0 10.5 4.3650793650793265)" d="M21,8.73L16.57,0L3.85,0L0,8.73L21,8.73Z " /><g opacity="1" transform="translate(10 15)  rotate(0 25 22)"><g opacity="1" transform="translate(0 0)  rotate(0 25 22)"><path  id="Path 2" style="stroke:#292934; stroke-width:3.4; stroke-opacity:1; stroke-dasharray:0 0" transform="translate(6.394884621840902e-14 0)  rotate(0 24.63921233096892 21.851878102983093)" d="M1.11387902616303,7.48891444723609C0.46510132373154045,8.179862698452803 0.39039300313600833,9.231313611101445 0.9349588056752034,10.007052020448665L22.139451153583533,40.213023618890695C22.700522134242416,41.01227378854467 23.615493222139296,41.488427357619564 24.592017996206234,41.4893464130828C25.568542770273172,41.49026546854604 26.4844084995406,41.015834989989486 27.04698291215657,40.21764233824479L48.34031562277664,10.006204847265249C48.88663194996857,9.231079516084533 48.81350285831621,8.178852815884765 48.16521521940286,7.486751706489148L41.74509987129446,0.6327432569040901C41.36697414553728,0.22906251616650208 40.83855520034312,-6.661338147750939e-16 40.28543929483883,-2.220446049250313e-16L9.011261052305816,0C8.458985698053835,-6.661338147750939e-16 7.9312925051657714,0.22836911177797026 7.553254413574356,0.630979678231548Z " /><path  id="Path 3" style="stroke:#292934; stroke-width:3.4; stroke-opacity:1; stroke-dasharray:0 0" transform="translate(24.48979591836732 8.674005879664143)  rotate(0 6.44646864564828 16.2771380559836)" d="M12.89,0L0,32.55 " /><path  id="Path 3" style="stroke:#292934; stroke-width:3.4; stroke-opacity:1; stroke-dasharray:0 0" transform="translate(12.36263736263723 8.67400587966412)  rotate(0 5.847259205592135 15.51067607883382)" d="M0,0L11.69,31.02 " /><path  id="Path 5" style="stroke:#292934; stroke-width:3.4; stroke-opacity:1; stroke-dasharray:0 0" transform="translate(2.040816326530612 8.380952380952381)  rotate(0 22.44897959183673 0.5238095238095235)" d="M0,0.52L44.9,0.52 " /></g></g></g></svg>