<svg xmlns="http://www.w3.org/2000/svg" xmlns:xlink="http://www.w3.org/1999/xlink" width="60" height="60" viewBox="0 0 60 60" fill="none"><g opacity="1" transform="translate(0 0)  rotate(0 30 30)"><g opacity="1" transform="translate(9 12)  rotate(0 21 18.5)"><path id="Shape" style="fill:#3399FF" transform="translate(0 0)  rotate(0 21 18.375)" opacity="1" d="M1.5 34.29C0.67 34.29 0 33.63 0 32.81L0 1.48C0 0.66 0.67 0 1.5 0L14.08 0C16.95 0 19.48 1.42 21 3.58C22.52 1.42 25.05 0 27.92 0L40.5 0C41.33 0 42 0.66 42 1.48L42 32.81C42 33.63 41.33 34.29 40.5 34.29L27.91 34.29C24.73 34.29 21.96 36.42 21.96 36.42C21.69 36.64 21.36 36.75 20.98 36.75C20.65 36.75 20.32 36.64 20.04 36.42C20.04 36.42 17.27 34.29 14.08 34.29L1.5 34.29Z " /></g><path id="Rectangle" style="fill:#FFFFFF" transform="translate(28.30000000000018 21)  rotate(0 1.6 9)" opacity="1" d="M9.797174393178826e-17,16.4C0,16.82434638374327 0.1685709445846686,17.23131264438162 0.4686291501015243,17.531370849898476C0.7686873556183799,17.83142905541533 1.1756536162567304,18 1.600000000000001,18L1.6,18C2.024346383743271,18 2.4313126443816215,17.83142905541533 2.731370849898477,17.531370849898472C3.0314290554153325,17.231312644381617 3.200000000000001,16.82434638374327 3.2,16.4L3.1999999999999997,1.6C3.2000000063232537,1.175653640098587 3.031429067802855,0.7686873769483339 2.731370866757215,0.4686291669602629C2.4313126657115753,0.16857095697219204 2.024346407585128,6.323253698425901e-9 1.6000000238418575,0L1.6,0C1.1756536162567295,-2.220446049250313e-16 0.7686873556183793,0.16857094458466815 0.46862915010152384,0.4686291501015236C0.16857094458466837,0.7686873556183792 -2.220446049250313e-16,1.1756536162567297 -2.220446049250313e-16,1.6Z " /></g></svg>