<svg width="60" height="60" viewBox="0 0 60 60" xmlns="http://www.w3.org/2000/svg"><path d="M49.497 12H36.915A8.44 8.44 0 0 0 30 15.575 8.44 8.44 0 0 0 23.085 12H10.503A1.49 1.49 0 0 0 9 13.478v31.337a1.49 1.49 0 0 0 1.503 1.478h12.582c3.19 0 5.896 2.088 5.952 2.13.277.22.61.327.944.327h.038c.338 0 .672-.11.944-.328.028-.023 2.763-2.13 5.948-2.13h12.586A1.49 1.49 0 0 0 51 44.816V13.478A1.49 1.49 0 0 0 49.497 12zM23.085 43.332H12.007V14.956h11.078c2.973 0 5.388 2.378 5.388 5.302v2.997l.033 21.408c-1.395-.675-3.298-1.33-5.421-1.33zm24.908 0H36.915c-2.104 0-3.998.642-5.393 1.312l-.033-21.393v-2.665c.024-.106.038-.217.038-.333 0-2.923 2.42-5.302 5.393-5.302h11.073v28.381z" fill="#C8CEDA" fill-rule="nonzero"/></svg>