<svg xmlns="http://www.w3.org/2000/svg" xmlns:xlink="http://www.w3.org/1999/xlink" width="60" height="60" viewBox="0 0 60 60" fill="none"><g opacity="1" transform="translate(0 0)  rotate(0 30 30)"><g opacity="1" transform="translate(11 11)  rotate(0 20 20)"><g opacity="1" transform="translate(0 0)  rotate(0 20 20)"><path  id="Path 4" style="stroke:#3399FF; stroke-width:3; stroke-opacity:1; stroke-dasharray:0 0" transform="translate(10.82415956439394 -1.77635683940025e-15)  rotate(0 14.31714607007576 11.79273200757576)" d="M0,3.48L-5.510910596163089e-16,2.9999999999999996C-4.440892098500626e-16,1.3431457505076196 1.3431457505076194,0 2.999999999999999,0L25.63429214015152,-3.673940397442059e-16C27.2911463896439,-4.440892098500626e-16 28.63429214015152,1.3431457505076194 28.63429214015152,2.9999999999999996L28.63429214015152,20.58546401515152C28.63429214015152,22.2423182646439 27.2911463896439,23.58546401515152 25.63429214015152,23.58546401515152L25.27,23.59 " /><path id="Path 4" style="fill:#3399FF" transform="translate(0 9.92039535984849)  rotate(0 14.31714607007576 14.730987236012036)" opacity="1" d="M1.8369701987210302e-16,20.58431056485527C0,21.3799600343739 0.3160705210962531,22.143021773070807 0.8786796564403572,22.70563090841491C1.4412887917844608,23.268240043759015 2.204350530481367,23.58431056485527 2.9999999999999996,23.58431056485527L11.776328504172719,23.58431056485527C12.451980921237592,23.58431056485527 13.107850777439639,23.812388014624165 13.637720927666674,24.231606111304142L19.726503026174463,29.04887623180792C20.302951949525816,29.50494612058545 21.089420526062852,29.591252460728874 21.75105698283367,29.2710489258417C22.41269343960449,28.950845390954527 22.832984552556816,28.280519360874802 22.832984552556816,27.5454730326189L22.83298455255682,24.58431056485527C22.83298455255682,24.032025815024475 23.280699802726026,23.58431056485527 23.83298455255682,23.58431056485527L25.73363834635417,23.58431056485527C26.50293956378486,23.58431056485527 27.240732206202452,23.278706846146818 27.78471031382276,22.73472873852651C28.32868842144307,22.1907506309062 28.63429214015152,21.45295798848861 28.63429214015152,20.68365677105792L28.63429214015152,3.0000000000000004C28.63429214015152,2.2043505304813675 28.318221619055265,1.4412887917844603 27.75561248371116,0.8786796564403567C27.193003348367057,0.31607052109625267 26.42994160967015,-4.440892098500626e-16 25.63429214015152,-4.440892098500626e-16L3.0000000000000004,0C2.204350530481369,0 1.4412887917844617,0.3160705210962531 0.8786796564403576,0.8786796564403572C0.31607052109625355,1.4412887917844615 0,2.2043505304813675 0,2.9999999999999996Z " /><path  id="Path 4" style="stroke:#3399FF; stroke-width:3; stroke-opacity:1; stroke-dasharray:0 0" transform="translate(0 9.92039535984849)  rotate(0 14.31714607007576 14.730987236012036)" d="M1.8369701987210302e-16,20.58431056485527C0,21.3799600343739 0.3160705210962531,22.143021773070807 0.8786796564403572,22.70563090841491C1.4412887917844608,23.268240043759015 2.204350530481367,23.58431056485527 2.9999999999999996,23.58431056485527L11.776328504172719,23.58431056485527C12.451980921237592,23.58431056485527 13.107850777439639,23.812388014624165 13.637720927666674,24.231606111304142L19.726503026174463,29.04887623180792C20.302951949525816,29.50494612058545 21.089420526062852,29.591252460728874 21.75105698283367,29.2710489258417C22.41269343960449,28.950845390954527 22.832984552556816,28.280519360874802 22.832984552556816,27.5454730326189L22.83298455255682,24.58431056485527C22.83298455255682,24.032025815024475 23.280699802726026,23.58431056485527 23.83298455255682,23.58431056485527L25.73363834635417,23.58431056485527C26.50293956378486,23.58431056485527 27.240732206202452,23.278706846146818 27.78471031382276,22.73472873852651C28.32868842144307,22.1907506309062 28.63429214015152,21.45295798848861 28.63429214015152,20.68365677105792L28.63429214015152,3.0000000000000004C28.63429214015152,2.2043505304813675 28.318221619055265,1.4412887917844603 27.75561248371116,0.8786796564403567C27.193003348367057,0.31607052109625267 26.42994160967015,-4.440892098500626e-16 25.63429214015152,-4.440892098500626e-16L3.0000000000000004,0C2.204350530481369,0 1.4412887917844617,0.3160705210962531 0.8786796564403576,0.8786796564403572C0.31607052109625355,1.4412887917844615 0,2.2043505304813675 0,2.9999999999999996Z " /></g></g><path id="Rectangle" style="fill:#3399FF" transform="translate(20.40000000000005 11.10000000000003)  rotate(0 15.00000000000017 12.50000000000888)" opacity="1" d="M6.123233995736767e-17,4.01000000000356C0,4.275216489843103 0.10535684036541781,4.529570402742072 0.29289321881345254,4.7171067811901075C0.48042959726148726,4.904643159638142 0.7347835101604561,5.01000000000356 1,5.01000000000356L19.83800000000027,5.010000000003559C22.047138999323444,5.010000000003558 23.83800000000027,6.800861000680384 23.83800000000027,9.010000000003558L23.83800000000027,24.00000000001776C23.83800000000027,24.552284749848553 24.285715250169478,25.00000000001776 24.83800000000027,25.00000000001776L26.919000000000306,25.00000000001776C27.736132005195955,25.00000000001776 28.519796410837685,24.675395574851905 29.097595992836087,24.097595992853503C29.67539557483449,23.5197964108551 30.000000000000345,22.736132005213367 30.000000000000345,21.919000000017725L30,0L2.50500000000178,0C1.8406326929532497,0 1.20347614114088,0.26391888511555894 0.7336975131282193,0.7336975131282195C0.2639188851155585,1.20347614114088 -4.440892098500626e-16,1.8406326929532502 -4.440892098500626e-16,2.5050000000017802Z " /></g></svg>